<?xml version="1.0" encoding="UTF-8"?>
<!DOCTYPE svg PUBLIC "-//W3C//DTD SVG 1.1//EN" "http://www.w3.org/Graphics/SVG/1.1/DTD/svg11.dtd">
<svg xmlns="http://www.w3.org/2000/svg" version="1.1" width="534px" height="144px" style="shape-rendering:geometricPrecision; text-rendering:geometricPrecision; image-rendering:optimizeQuality; fill-rule:evenodd; clip-rule:evenodd" xmlns:xlink="http://www.w3.org/1999/xlink">
<g><path style="opacity:0.997" fill="#fe267f" d="M 122.5,6.5 C 122.973,7.90632 123.973,8.57298 125.5,8.5C 126.167,8.5 126.5,8.83333 126.5,9.5C 126.833,10.5 127.5,11.1667 128.5,11.5C 129.833,13.5 131.5,15.1667 133.5,16.5C 134.833,18.5 136.5,20.1667 138.5,21.5C 138.897,22.525 139.563,22.6917 140.5,22C 143.036,19.295 145.703,16.795 148.5,14.5C 151.082,14.0254 153.082,14.6921 154.5,16.5C 153.5,16.5 152.5,16.5 151.5,16.5C 151.5,17.8333 151.5,19.1667 151.5,20.5C 150.833,21.8333 149.833,22.8333 148.5,23.5C 146.5,24.8333 144.833,26.5 143.5,28.5C 142.5,28.8333 141.833,29.5 141.5,30.5C 140.167,31.8333 138.833,31.8333 137.5,30.5C 137.167,29.5 136.5,28.8333 135.5,28.5C 134.167,27.8333 133.167,26.8333 132.5,25.5C 132.167,24.5 131.5,23.8333 130.5,23.5C 128.833,22.5 127.5,21.1667 126.5,19.5C 126.167,17.1667 124.833,15.8333 122.5,15.5C 121.738,13.7376 120.404,12.7376 118.5,12.5C 111.969,8.32642 104.969,6.99309 97.5,8.5C 94.7594,8.70732 92.4261,9.70732 90.5,11.5C 89.0351,12.7368 87.3684,13.7368 85.5,14.5C 82.5,15.5 80.5,17.5 79.5,20.5C 79.5,21.1667 79.1667,21.5 78.5,21.5C 76.127,23.5792 74.7936,26.2459 74.5,29.5C 73.0648,32.5499 72.3981,35.8832 72.5,39.5C 72.5046,41.6965 72.838,43.6965 73.5,45.5C 74.0053,48.8411 74.1719,52.1745 74,55.5C 72.5064,56.7472 71.0064,56.7472 69.5,55.5C 66.8463,47.7381 65.8463,39.7381 66.5,31.5C 68.2948,26.7938 70.2948,22.1272 72.5,17.5C 75.8333,14.8333 78.8333,11.8333 81.5,8.5C 94.7528,0.0762763 108.419,-0.59039 122.5,6.5 Z"/></g>
<g><path style="opacity:0.02" fill="#fdeff4" d="M 194.5,6.5 C 183.468,0.747362 172.134,0.0806956 160.5,4.5C 164.969,1.5721 169.969,0.238762 175.5,0.5C 180.336,0.389676 185.002,1.22301 189.5,3C 191.584,3.69724 193.251,4.8639 194.5,6.5 Z"/></g>
<g><path style="opacity:0.025" fill="#feeaf3" d="M 122.5,6.5 C 108.419,-0.59039 94.7528,0.0762763 81.5,8.5C 83.5777,5.94929 86.2444,4.11596 89.5,3C 99.6302,-0.562114 109.63,-0.22878 119.5,4C 120.942,4.37675 121.942,5.21009 122.5,6.5 Z"/></g>
<g><path style="opacity:0.996" fill="#fe257f" d="M 194.5,6.5 C 196.027,6.42702 197.027,7.09368 197.5,8.5C 198.262,10.2624 199.596,11.2624 201.5,11.5C 202.419,14.0892 204.086,16.0892 206.5,17.5C 206.427,19.0269 207.094,20.0269 208.5,20.5C 209.338,20.8417 209.672,21.5084 209.5,22.5C 210.079,25.7062 211.079,28.7062 212.5,31.5C 212.664,38.2022 212.331,44.8689 211.5,51.5C 208.612,52.0102 206.279,51.3435 204.5,49.5C 206.019,46.4744 206.685,43.1411 206.5,39.5C 206.685,35.8589 206.019,32.5256 204.5,29.5C 204.539,26.911 203.539,24.911 201.5,23.5C 200.599,22.7095 199.932,21.7095 199.5,20.5C 198.5,17.5 196.5,15.5 193.5,14.5C 191.948,11.8881 189.614,10.5548 186.5,10.5C 179.409,6.70326 172.076,6.5366 164.5,10C 161.244,11.116 158.578,12.9493 156.5,15.5C 155.833,15.8333 155.167,16.1667 154.5,16.5C 153.082,14.6921 151.082,14.0254 148.5,14.5C 150.167,12.5 151.833,10.5 153.5,8.5C 155.027,8.57298 156.027,7.90632 156.5,6.5C 157.514,5.32627 158.847,4.6596 160.5,4.5C 172.134,0.0806956 183.468,0.747362 194.5,6.5 Z"/></g>
<g><path style="opacity:0.004" fill="#ffeef5" d="M 122.5,6.5 C 124.027,6.42702 125.027,7.09368 125.5,8.5C 123.973,8.57298 122.973,7.90632 122.5,6.5 Z"/></g>
<g><path style="opacity:0.306" fill="#ffe1f0" d="M 156.5,6.5 C 156.027,7.90632 155.027,8.57298 153.5,8.5C 153.973,7.09368 154.973,6.42702 156.5,6.5 Z"/></g>
<g><path style="opacity:0.012" fill="#ffe4ef" d="M 197.5,8.5 C 199.404,8.73758 200.738,9.73758 201.5,11.5C 199.596,11.2624 198.262,10.2624 197.5,8.5 Z"/></g>
<g><path style="opacity:0.039" fill="#fff7fa" d="M 97.5,8.5 C 99.1667,8.5 100.833,8.5 102.5,8.5C 98.6138,9.49016 94.6138,10.4902 90.5,11.5C 92.4261,9.70732 94.7594,8.70732 97.5,8.5 Z"/></g>
<g><path style="opacity:0.004" fill="#fff0f6" d="M 126.5,9.5 C 127.833,9.5 128.5,10.1667 128.5,11.5C 127.5,11.1667 126.833,10.5 126.5,9.5 Z"/></g>
<g><path style="opacity:0.067" fill="#fbeaf1" d="M 186.5,10.5 C 175.726,8.01443 165.726,9.6811 156.5,15.5C 158.578,12.9493 161.244,11.116 164.5,10C 172.076,6.5366 179.409,6.70326 186.5,10.5 Z"/></g>
<g><path style="opacity:0.033" fill="#ffdfec" d="M 97.5,8.5 C 104.969,6.99309 111.969,8.32642 118.5,12.5C 113.307,10.5458 107.974,9.21248 102.5,8.5C 100.833,8.5 99.1667,8.5 97.5,8.5 Z"/></g>
<g><path style="opacity:0.004" fill="#ffecf3" d="M 128.5,11.5 C 131.167,12.1667 132.833,13.8333 133.5,16.5C 131.5,15.1667 129.833,13.5 128.5,11.5 Z"/></g>
<g><path style="opacity:0.118" fill="#ffe4ef" d="M 186.5,10.5 C 189.614,10.5548 191.948,11.8881 193.5,14.5C 190.996,13.4161 188.663,12.0828 186.5,10.5 Z"/></g>
<g><path style="opacity:0.4" fill="#ffd8e9" d="M 81.5,8.5 C 78.8333,11.8333 75.8333,14.8333 72.5,17.5C 74.5,13.5 77.5,10.5 81.5,8.5 Z"/></g>
<g><path style="opacity:0.161" fill="#ffe5f1" d="M 118.5,12.5 C 120.404,12.7376 121.738,13.7376 122.5,15.5C 120.596,15.2624 119.262,14.2624 118.5,12.5 Z"/></g>
<g><path style="opacity:0.537" fill="#ffc2db" d="M 122.5,15.5 C 124.833,15.8333 126.167,17.1667 126.5,19.5C 124.833,18.5 123.5,17.1667 122.5,15.5 Z"/></g>
<g><path style="opacity:0.239" fill="#ffdeec" d="M 193.5,14.5 C 196.5,15.5 198.5,17.5 199.5,20.5C 197.167,18.8333 195.167,16.8333 193.5,14.5 Z"/></g>
<g><path style="opacity:0.053" fill="#ffe5f0" d="M 201.5,11.5 C 203.914,12.9108 205.581,14.9108 206.5,17.5C 204.086,16.0892 202.419,14.0892 201.5,11.5 Z"/></g>
<g><path style="opacity:0.969" fill="#ffa1bd" d="M 156.5,15.5 C 155.215,17.4516 153.549,19.1182 151.5,20.5C 151.5,19.1667 151.5,17.8333 151.5,16.5C 152.5,16.5 153.5,16.5 154.5,16.5C 155.167,16.1667 155.833,15.8333 156.5,15.5 Z"/></g>
<g><path style="opacity:0.004" fill="#ffeef5" d="M 85.5,14.5 C 83.8333,16.8333 81.8333,18.8333 79.5,20.5C 80.5,17.5 82.5,15.5 85.5,14.5 Z"/></g>
<g><path style="opacity:0.05" fill="#fff6f9" d="M 133.5,16.5 C 136.167,17.1667 137.833,18.8333 138.5,21.5C 136.5,20.1667 134.833,18.5 133.5,16.5 Z"/></g>
<g><path style="opacity:0.314" fill="#fde9f2" d="M 153.5,8.5 C 151.833,10.5 150.167,12.5 148.5,14.5C 145.703,16.795 143.036,19.295 140.5,22C 139.563,22.6917 138.897,22.525 138.5,21.5C 143.224,16.7706 148.224,12.4373 153.5,8.5 Z"/></g>
<g><path style="opacity:0.035" fill="#fff4f8" d="M 206.5,17.5 C 207.906,17.9731 208.573,18.9731 208.5,20.5C 207.094,20.0269 206.427,19.0269 206.5,17.5 Z"/></g>
<g><path style="opacity:0.043" fill="#ffeef6" d="M 72.5,17.5 C 70.2948,22.1272 68.2948,26.7938 66.5,31.5C 66.7715,25.9971 68.7715,21.3304 72.5,17.5 Z"/></g>
<g><path style="opacity:0.149" fill="#ffe1ee" d="M 78.5,21.5 C 77.6743,24.4848 76.341,27.1515 74.5,29.5C 74.7936,26.2459 76.127,23.5792 78.5,21.5 Z"/></g>
<g><path style="opacity:0.004" fill="#fdf5f7" d="M 130.5,23.5 C 131.5,23.8333 132.167,24.5 132.5,25.5C 131.167,25.5 130.5,24.8333 130.5,23.5 Z"/></g>
<g><path style="opacity:0.029" fill="#fdf9fb" d="M 148.5,23.5 C 147.833,26.1667 146.167,27.8333 143.5,28.5C 144.833,26.5 146.5,24.8333 148.5,23.5 Z"/></g>
<g><path style="opacity:0.094" fill="#ffe6ef" d="M 201.5,23.5 C 203.539,24.911 204.539,26.911 204.5,29.5C 202.992,27.8185 201.992,25.8185 201.5,23.5 Z"/></g>
<g><path style="opacity:0.037" fill="#ffe1ed" d="M 209.5,22.5 C 211.868,24.9557 212.868,27.9557 212.5,31.5C 211.079,28.7062 210.079,25.7062 209.5,22.5 Z"/></g>
<g><path style="opacity:0.004" fill="#fbf2f6" d="M 135.5,28.5 C 136.5,28.8333 137.167,29.5 137.5,30.5C 136.167,30.5 135.5,29.8333 135.5,28.5 Z"/></g>
<g><path style="opacity:0.004" fill="#fff7fb" d="M 143.5,28.5 C 143.5,29.8333 142.833,30.5 141.5,30.5C 141.833,29.5 142.5,28.8333 143.5,28.5 Z"/></g>
<g><path style="opacity:0.121" fill="#fff8fb" d="M 74.5,29.5 C 73.8058,34.8049 73.4724,40.1383 73.5,45.5C 72.838,43.6965 72.5046,41.6965 72.5,39.5C 72.3981,35.8832 73.0648,32.5499 74.5,29.5 Z"/></g>
<g><path style="opacity:0.129" fill="#ffe8f2" d="M 155.5,37.5 C 157.467,37.2606 159.301,37.5939 161,38.5C 162.796,42.9825 163.63,47.6491 163.5,52.5C 159.5,52.5 155.5,52.5 151.5,52.5C 151.882,47.1652 153.215,42.1652 155.5,37.5 Z"/></g>
<g><path style="opacity:0.994" fill="#ff2a80" d="M 123.5,55.5 C 122.486,56.6737 121.153,57.3404 119.5,57.5C 117.856,58.3657 116.189,58.8657 114.5,59C 116.034,52.9442 117.2,46.7775 118,40.5C 122.258,37.694 124.591,39.0273 125,44.5C 125.339,47.036 125.839,49.536 126.5,52C 125.929,53.5991 124.929,54.7658 123.5,55.5 Z"/></g>
<g><path style="opacity:0.989" fill="#ff157c" d="M 156.5,38.5 C 158.911,38.1367 160.411,39.1367 161,41.5C 161.826,44.7928 162.326,48.1262 162.5,51.5C 159.5,51.5 156.5,51.5 153.5,51.5C 153.122,46.7664 154.122,42.433 156.5,38.5 Z"/></g>
<g><path style="opacity:0.139" fill="#fff0f6" d="M 204.5,29.5 C 206.019,32.5256 206.685,35.8589 206.5,39.5C 206.685,43.1411 206.019,46.4744 204.5,49.5C 205.833,42.8333 205.833,36.1667 204.5,29.5 Z"/></g>
<g><path style="opacity:0.133" fill="#ffe8f2" d="M 66.5,31.5 C 65.8463,39.7381 66.8463,47.7381 69.5,55.5C 71.0064,56.7472 72.5064,56.7472 74,55.5C 74.1719,52.1745 74.0053,48.8411 73.5,45.5C 75.0352,48.6153 75.8685,51.9486 76,55.5C 72.2703,59.2717 69.2703,58.6051 67,53.5C 64.6264,46.0099 64.4598,38.6766 66.5,31.5 Z"/></g>
<g><path style="opacity:0.051" fill="#ffe7f1" d="M 212.5,31.5 C 213.655,34.2626 214.322,37.2626 214.5,40.5C 213.96,44.5335 213.293,48.5335 212.5,52.5C 209.5,52.5 206.5,52.5 203.5,52.5C 203.263,51.209 203.596,50.209 204.5,49.5C 206.279,51.3435 208.612,52.0102 211.5,51.5C 212.331,44.8689 212.664,38.2022 212.5,31.5 Z"/></g>
<g><path style="opacity:0.059" fill="#fff0f6" d="M 123.5,55.5 C 124.929,54.7658 125.929,53.5991 126.5,52C 125.839,49.536 125.339,47.036 125,44.5C 124.591,39.0273 122.258,37.694 118,40.5C 117.2,46.7775 116.034,52.9442 114.5,59C 116.189,58.8657 117.856,58.3657 119.5,57.5C 118.492,59.3386 116.992,60.6719 115,61.5C 114.056,60.737 113.556,59.737 113.5,58.5C 114.882,52.2076 116.049,45.8742 117,39.5C 121.406,36.2485 124.406,37.2485 126,42.5C 126.407,45.682 126.907,48.8486 127.5,52C 127.576,54.7561 126.243,55.9228 123.5,55.5 Z"/></g>
<g><path style="opacity:0.028" fill="#fdf8fa" d="M 104.5,53.5 C 101.682,53.6574 99.6824,54.9908 98.5,57.5C 98.7932,53.1708 100.793,51.8374 104.5,53.5 Z"/></g>
<g><path style="opacity:0.059" fill="#fefffe" d="M 104.5,53.5 C 105.833,53.5 106.5,54.1667 106.5,55.5C 105.5,55.1667 104.833,54.5 104.5,53.5 Z"/></g>
<g><path style="opacity:0.995" fill="#fe3684" d="M 104.5,53.5 C 104.833,54.5 105.5,55.1667 106.5,55.5C 106.427,57.0269 107.094,58.0269 108.5,58.5C 108.427,60.0269 109.094,61.0269 110.5,61.5C 110.5,62.8333 110.5,64.1667 110.5,65.5C 109.288,66.2299 108.288,67.2299 107.5,68.5C 106.817,68.1373 106.15,67.8039 105.5,67.5C 105.585,66.0047 104.919,65.0047 103.5,64.5C 101.713,66.8584 100.713,69.525 100.5,72.5C 96.4185,75.4809 93.0852,74.6475 90.5,70C 79.1667,69.6667 67.8333,69.3333 56.5,69C 52.8995,67.3595 52.5662,65.1928 55.5,62.5C 67.5,62.5 79.5,62.5 91.5,62.5C 92.4916,62.3284 93.1583,62.6618 93.5,63.5C 93.8212,65.0481 94.8212,65.7148 96.5,65.5C 96.5,64.5 96.5,63.5 96.5,62.5C 97.9313,61.2196 98.5979,59.5529 98.5,57.5C 99.6824,54.9908 101.682,53.6574 104.5,53.5 Z"/></g>
<g><path style="opacity:0.098" fill="#ffeff5" d="M 106.5,55.5 C 107.906,55.9731 108.573,56.9731 108.5,58.5C 107.094,58.0269 106.427,57.0269 106.5,55.5 Z"/></g>
<g><path style="opacity:0.025" fill="#fff0f6" d="M 98.5,57.5 C 98.5979,59.5529 97.9313,61.2196 96.5,62.5C 96.4021,60.4471 97.0687,58.7804 98.5,57.5 Z"/></g>
<g><path style="opacity:0.09" fill="#fff1f9" d="M 108.5,58.5 C 109.906,58.9731 110.573,59.9731 110.5,61.5C 109.094,61.0269 108.427,60.0269 108.5,58.5 Z"/></g>
<g><path style="opacity:0.058" fill="#fdfdfd" d="M 91.5,62.5 C 79.5,62.5 67.5,62.5 55.5,62.5C 63.858,61.7925 72.358,61.1258 81,60.5C 84.6241,60.11 88.1241,60.7767 91.5,62.5 Z"/></g>
<g><path style="opacity:0.196" fill="#ffe3ef" d="M 110.5,61.5 C 112.781,63.0322 112.781,64.3656 110.5,65.5C 110.5,64.1667 110.5,62.8333 110.5,61.5 Z"/></g>
<g><path style="opacity:0.31" fill="#ffd6e8" d="M 96.5,62.5 C 96.5,63.5 96.5,64.5 96.5,65.5C 94.8212,65.7148 93.8212,65.0481 93.5,63.5C 94.1174,63.6107 94.6174,63.944 95,64.5C 95.2784,63.5842 95.7784,62.9175 96.5,62.5 Z"/></g>
<g><path style="opacity:0.058" fill="#ffecf4" d="M 105.5,67.5 C 104.883,67.3893 104.383,67.056 104,66.5C 102.918,68.6181 101.751,70.6181 100.5,72.5C 100.713,69.525 101.713,66.8584 103.5,64.5C 104.919,65.0047 105.585,66.0047 105.5,67.5 Z"/></g>
<g><path style="opacity:0.078" fill="#fff2f9" d="M 110.5,65.5 C 110.325,67.8444 109.158,69.511 107,70.5C 105.961,69.7562 105.461,68.7562 105.5,67.5C 106.15,67.8039 106.817,68.1373 107.5,68.5C 108.288,67.2299 109.288,66.2299 110.5,65.5 Z"/></g>
<g><path style="opacity:0.031" fill="#fff6f9" d="M 55.5,62.5 C 52.5662,65.1928 52.8995,67.3595 56.5,69C 67.8333,69.3333 79.1667,69.6667 90.5,70C 93.0852,74.6475 96.4185,75.4809 100.5,72.5C 100.24,74.595 99.0736,75.9283 97,76.5C 93.9495,75.4539 91.4495,73.6206 89.5,71C 77.8333,70.6667 66.1667,70.3333 54.5,70C 52.6041,68.1917 52.1041,66.025 53,63.5C 53.6708,62.7476 54.5041,62.4142 55.5,62.5 Z"/></g>
<g><path style="opacity:0.062" fill="#ececec" d="M 121.5,76.5 C 124.5,76.5 127.5,76.5 130.5,76.5C 130.5,79.5 130.5,82.5 130.5,85.5C 133.833,85.5 137.167,85.5 140.5,85.5C 140.5,82.5 140.5,79.5 140.5,76.5C 143.167,76.5 145.833,76.5 148.5,76.5C 148.5,85.1667 148.5,93.8333 148.5,102.5C 145.833,102.5 143.167,102.5 140.5,102.5C 140.5,99.5 140.5,96.5 140.5,93.5C 137.167,93.5 133.833,93.5 130.5,93.5C 130.5,96.5 130.5,99.5 130.5,102.5C 127.5,102.5 124.5,102.5 121.5,102.5C 121.5,93.8333 121.5,85.1667 121.5,76.5 Z"/></g>
<g><path style="opacity:0.042" fill="#eceded" d="M 221.5,76.5 C 224.5,76.5 227.5,76.5 230.5,76.5C 230.5,82.5 230.5,88.5 230.5,94.5C 235.833,94.5 241.167,94.5 246.5,94.5C 246.5,97.1667 246.5,99.8333 246.5,102.5C 238.167,102.5 229.833,102.5 221.5,102.5C 221.5,93.8333 221.5,85.1667 221.5,76.5 Z"/></g>
<g><path style="opacity:0.067" fill="#efefef" d="M 314.5,76.5 C 317.5,76.5 320.5,76.5 323.5,76.5C 323.5,79.5 323.5,82.5 323.5,85.5C 326.833,85.5 330.167,85.5 333.5,85.5C 333.5,82.5 333.5,79.5 333.5,76.5C 336.167,76.5 338.833,76.5 341.5,76.5C 341.5,85.1667 341.5,93.8333 341.5,102.5C 338.833,102.5 336.167,102.5 333.5,102.5C 333.5,99.5 333.5,96.5 333.5,93.5C 330.167,93.5 326.833,93.5 323.5,93.5C 323.5,96.5 323.5,99.5 323.5,102.5C 320.5,102.5 317.5,102.5 314.5,102.5C 314.5,93.8333 314.5,85.1667 314.5,76.5 Z"/></g>
<g><path style="opacity:0.081" fill="#eeefef" d="M 407.5,79.5 C 409.026,80.4919 409.693,81.9919 409.5,84C 409.646,86.0342 408.98,87.7009 407.5,89C 409.028,90.6477 409.695,92.6477 409.5,95C 409.695,97.3523 409.028,99.3523 407.5,101C 399.611,102.435 391.611,102.935 383.5,102.5C 383.5,93.8333 383.5,85.1667 383.5,76.5C 391.283,74.8418 398.95,75.1751 406.5,77.5C 407.298,77.9569 407.631,78.6236 407.5,79.5 Z M 401.5,83.5 C 400.306,84.7773 398.64,85.4439 396.5,85.5C 394.833,85.3333 393.167,85.1667 391.5,85C 394.619,83.5949 397.952,83.0949 401.5,83.5 Z M 402.5,93.5 C 399.061,95.958 395.394,96.1246 391.5,94C 395.152,93.5014 398.818,93.3347 402.5,93.5 Z"/></g>
<g><path style="opacity:0.999" fill="#101010" d="M 128.5,77.5 C 128.5,80.8333 128.5,84.1667 128.5,87.5C 133.032,87.8182 137.366,87.4849 141.5,86.5C 141.5,83.5 141.5,80.5 141.5,77.5C 143.5,77.5 145.5,77.5 147.5,77.5C 147.5,85.5 147.5,93.5 147.5,101.5C 145.5,101.5 143.5,101.5 141.5,101.5C 141.5,98.5 141.5,95.5 141.5,92.5C 137.167,92.5 132.833,92.5 128.5,92.5C 128.5,95.5 128.5,98.5 128.5,101.5C 126.5,101.5 124.5,101.5 122.5,101.5C 122.5,93.5 122.5,85.5 122.5,77.5C 124.5,77.5 126.5,77.5 128.5,77.5 Z"/></g>
<g><path style="opacity:0.999" fill="#0f0f0f" d="M 211.5,91.5 C 211.229,93.3797 211.896,94.713 213.5,95.5C 213.833,97.5 214.167,99.5 214.5,101.5C 210.855,102.32 208.522,100.987 207.5,97.5C 203.541,96.3401 199.541,96.1735 195.5,97C 194.122,100.637 191.455,102.137 187.5,101.5C 187.5,100.5 187.5,99.5 187.5,98.5C 187.328,97.5084 187.662,96.8417 188.5,96.5C 191.647,91.8724 193.981,86.8724 195.5,81.5C 197.415,78.0108 200.415,76.8441 204.5,78C 206.465,82.7656 208.798,87.2656 211.5,91.5 Z M 200.5,86.5 C 203.383,88.9822 203.05,90.1489 199.5,90C 200.337,88.9887 200.67,87.8221 200.5,86.5 Z"/></g>
<g><path style="opacity:0.999" fill="#111111" d="M 373.5,98.5 C 367.874,101.222 361.874,102.222 355.5,101.5C 354.738,99.7376 353.404,98.7376 351.5,98.5C 350.573,91.557 350.24,84.557 350.5,77.5C 352.5,77.5 354.5,77.5 356.5,77.5C 356.334,83.1764 356.501,88.8431 357,94.5C 360.667,97.1667 364.333,97.1667 368,94.5C 368.499,88.8431 368.666,83.1764 368.5,77.5C 370.833,77.5 373.167,77.5 375.5,77.5C 375.95,84.6489 375.284,91.6489 373.5,98.5 Z"/></g>
<g><path style="opacity:0.105" fill="#e4e4e4" d="M 373.5,98.5 C 375.284,91.6489 375.95,84.6489 375.5,77.5C 373.167,77.5 370.833,77.5 368.5,77.5C 368.666,83.1764 368.499,88.8431 368,94.5C 364.333,97.1667 360.667,97.1667 357,94.5C 356.501,88.8431 356.334,83.1764 356.5,77.5C 354.5,77.5 352.5,77.5 350.5,77.5C 350.24,84.557 350.573,91.557 351.5,98.5C 350.034,97.653 349.2,96.3197 349,94.5C 348.501,88.5092 348.334,82.5092 348.5,76.5C 351.5,76.5 354.5,76.5 357.5,76.5C 357.334,82.1764 357.501,87.8431 358,93.5C 361,96.1667 364,96.1667 367,93.5C 367.499,87.8431 367.666,82.1764 367.5,76.5C 370.5,76.5 373.5,76.5 376.5,76.5C 376.666,82.8421 376.5,89.1754 376,95.5C 375.623,96.9423 374.79,97.9423 373.5,98.5 Z"/></g>
<g><path style="opacity:1" fill="#0f0f0f" d="M 407.5,79.5 C 409.321,83.2306 408.654,86.3973 405.5,89C 409.032,92.3899 409.366,96.0566 406.5,100C 399.281,101.429 391.947,101.929 384.5,101.5C 384.5,93.5 384.5,85.5 384.5,77.5C 392.458,75.6243 400.125,76.2909 407.5,79.5 Z M 401.5,83.5 C 397.952,83.0949 394.619,83.5949 391.5,85C 393.167,85.1667 394.833,85.3333 396.5,85.5C 398.64,85.4439 400.306,84.7773 401.5,83.5 Z M 402.5,93.5 C 398.818,93.3347 395.152,93.5014 391.5,94C 395.394,96.1246 399.061,95.958 402.5,93.5 Z"/></g>
<g><path style="opacity:0.102" fill="#ededed" d="M 280.5,76.5 C 283.448,76.2229 286.281,76.5562 289,77.5C 288.917,80.1194 288.75,82.786 288.5,85.5C 291.833,85.5 295.167,85.5 298.5,85.5C 298.5,82.5 298.5,79.5 298.5,76.5C 301.5,76.5 304.5,76.5 307.5,76.5C 307.5,85.1667 307.5,93.8333 307.5,102.5C 304.5,102.5 301.5,102.5 298.5,102.5C 298.5,99.5 298.5,96.5 298.5,93.5C 295.167,93.5 291.833,93.5 288.5,93.5C 291.192,101.087 288.525,104.087 280.5,102.5C 280.5,93.8333 280.5,85.1667 280.5,76.5 Z"/></g>
<g><path style="opacity:0.857" fill="#424242" d="M 305.5,77.5 C 306.492,85.3159 306.826,93.3159 306.5,101.5C 304.167,101.5 301.833,101.5 299.5,101.5C 299.5,98.5 299.5,95.5 299.5,92.5C 300.473,94.9479 300.806,97.6146 300.5,100.5C 302.167,100.5 303.833,100.5 305.5,100.5C 305.5,92.8333 305.5,85.1667 305.5,77.5 Z"/></g>
<g><path style="opacity:0.998" fill="#080808" d="M 305.5,77.5 C 305.5,85.1667 305.5,92.8333 305.5,100.5C 303.833,100.5 302.167,100.5 300.5,100.5C 300.806,97.6146 300.473,94.9479 299.5,92.5C 295.5,92.5 291.5,92.5 287.5,92.5C 287.5,95.5 287.5,98.5 287.5,101.5C 285.5,101.5 283.5,101.5 281.5,101.5C 281.5,93.5 281.5,85.5 281.5,77.5C 283.5,77.5 285.5,77.5 287.5,77.5C 287.5,80.5 287.5,83.5 287.5,86.5C 291.833,86.5 296.167,86.5 300.5,86.5C 300.5,83.5 300.5,80.5 300.5,77.5C 302.167,77.5 303.833,77.5 305.5,77.5 Z"/></g>
<g><path style="opacity:0.099" fill="#e9e9e9" d="M 401.5,83.5 C 402.404,84.209 402.737,85.209 402.5,86.5C 398.5,86.5 394.5,86.5 390.5,86.5C 390.5,85.1667 390.5,83.8333 390.5,82.5C 394.371,82.185 398.038,82.5184 401.5,83.5 Z M 401.5,83.5 C 397.952,83.0949 394.619,83.5949 391.5,85C 393.167,85.1667 394.833,85.3333 396.5,85.5C 398.64,85.4439 400.306,84.7773 401.5,83.5 Z"/></g>
<g><path style="opacity:1" fill="#080909" d="M 316.5,77.5 C 318.167,77.5 319.833,77.5 321.5,77.5C 321.5,80.5 321.5,83.5 321.5,86.5C 325.833,86.5 330.167,86.5 334.5,86.5C 334.5,83.5 334.5,80.5 334.5,77.5C 336.5,77.5 338.5,77.5 340.5,77.5C 340.5,85.5 340.5,93.5 340.5,101.5C 338.5,101.5 336.5,101.5 334.5,101.5C 334.5,98.5 334.5,95.5 334.5,92.5C 330.5,92.5 326.5,92.5 322.5,92.5C 321.527,94.9479 321.194,97.6146 321.5,100.5C 319.833,100.5 318.167,100.5 316.5,100.5C 316.5,92.8333 316.5,85.1667 316.5,77.5 Z"/></g>
<g><path style="opacity:0.061" fill="#eeeeee" d="M 155.5,76.5 C 163.833,76.5 172.167,76.5 180.5,76.5C 180.5,79.1667 180.5,81.8333 180.5,84.5C 175.156,84.334 169.823,84.5006 164.5,85C 168.821,85.499 173.154,85.6657 177.5,85.5C 177.5,88.1667 177.5,90.8333 177.5,93.5C 173.154,93.3343 168.821,93.501 164.5,94C 169.823,94.4994 175.156,94.666 180.5,94.5C 180.5,97.1667 180.5,99.8333 180.5,102.5C 172.248,102.816 164.081,102.482 156,101.5C 155.5,93.1733 155.334,84.84 155.5,76.5 Z"/></g>
<g><path style="opacity:0.998" fill="#0b0b0b" d="M 163.5,86.5 C 167.298,87.4834 171.298,87.8168 175.5,87.5C 175.5,89.1667 175.5,90.8333 175.5,92.5C 171.5,92.5 167.5,92.5 163.5,92.5C 163.5,93.5 163.5,94.5 163.5,95.5C 168.833,95.5 174.167,95.5 179.5,95.5C 179.5,97.5 179.5,99.5 179.5,101.5C 172.167,101.5 164.833,101.5 157.5,101.5C 157.5,93.5 157.5,85.5 157.5,77.5C 164.833,77.5 172.167,77.5 179.5,77.5C 179.5,79.5 179.5,81.5 179.5,83.5C 174.167,83.5 168.833,83.5 163.5,83.5C 163.5,84.5 163.5,85.5 163.5,86.5 Z"/></g>
<g><path style="opacity:0.778" fill="#535454" d="M 128.5,77.5 C 129.477,80.2869 129.81,83.2869 129.5,86.5C 133.5,86.5 137.5,86.5 141.5,86.5C 137.366,87.4849 133.032,87.8182 128.5,87.5C 128.5,84.1667 128.5,80.8333 128.5,77.5 Z"/></g>
<g><path style="opacity:0.788" fill="#4f5050" d="M 163.5,86.5 C 167.833,86.5 172.167,86.5 176.5,86.5C 176.795,88.7354 176.461,90.7354 175.5,92.5C 175.5,90.8333 175.5,89.1667 175.5,87.5C 171.298,87.8168 167.298,87.4834 163.5,86.5 Z"/></g>
<g><path style="opacity:0.091" fill="#f6f6f6" d="M 264.5,101.5 C 262.052,102.473 259.385,102.806 256.5,102.5C 256.5,96.5 256.5,90.5 256.5,84.5C 253.5,84.5 250.5,84.5 247.5,84.5C 247.5,81.8333 247.5,79.1667 247.5,76.5C 256.5,76.5 265.5,76.5 274.5,76.5C 274.5,79.1667 274.5,81.8333 274.5,84.5C 271.5,84.5 268.5,84.5 265.5,84.5C 265.822,90.358 265.489,96.0247 264.5,101.5 Z"/></g>
<g><path style="opacity:0.999" fill="#0c0c0c" d="M 272.5,77.5 C 272.5,79.1667 272.5,80.8333 272.5,82.5C 269.5,82.5 266.5,82.5 263.5,82.5C 263.5,88.8333 263.5,95.1667 263.5,101.5C 261.5,101.5 259.5,101.5 257.5,101.5C 257.5,95.5 257.5,89.5 257.5,83.5C 254.5,83.5 251.5,83.5 248.5,83.5C 248.5,81.5 248.5,79.5 248.5,77.5C 256.5,77.5 264.5,77.5 272.5,77.5 Z"/></g>
<g><path style="opacity:0.728" fill="#5a5a5a" d="M 316.5,77.5 C 316.5,85.1667 316.5,92.8333 316.5,100.5C 318.167,100.5 319.833,100.5 321.5,100.5C 321.194,97.6146 321.527,94.9479 322.5,92.5C 322.5,95.5 322.5,98.5 322.5,101.5C 320.167,101.5 317.833,101.5 315.5,101.5C 315.174,93.3159 315.508,85.3159 316.5,77.5 Z"/></g>
<g><path style="opacity:0.094" fill="#e9e9e9" d="M 211.5,91.5 C 208.798,87.2656 206.465,82.7656 204.5,78C 200.415,76.8441 197.415,78.0108 195.5,81.5C 195.421,80.0695 195.754,78.7362 196.5,77.5C 199.446,76.3452 202.446,76.1786 205.5,77C 207.924,81.6788 209.924,86.5121 211.5,91.5 Z"/></g>
<g><path style="opacity:0.999" fill="#040404" d="M 244.5,95.5 C 244.5,97.1667 244.5,98.8333 244.5,100.5C 237.5,100.5 230.5,100.5 223.5,100.5C 223.5,92.8333 223.5,85.1667 223.5,77.5C 225.5,77.5 227.5,77.5 229.5,77.5C 229.5,83.5 229.5,89.5 229.5,95.5C 234.5,95.5 239.5,95.5 244.5,95.5 Z"/></g>
<g><path style="opacity:0.057" fill="#e4e4e4" d="M 200.5,84.5 C 202.306,86.0894 203.639,88.0894 204.5,90.5C 202.604,91.4656 200.604,91.7989 198.5,91.5C 198.767,89.0347 199.434,86.7014 200.5,84.5 Z M 200.5,86.5 C 200.67,87.8221 200.337,88.9887 199.5,90C 203.05,90.1489 203.383,88.9822 200.5,86.5 Z"/></g>
<g><path style="opacity:0.098" fill="#d6d7d7" d="M 195.5,81.5 C 193.981,86.8724 191.647,91.8724 188.5,96.5C 190.044,91.0806 192.378,86.0806 195.5,81.5 Z"/></g>
<g><path style="opacity:0.296" fill="#ffdae9" d="M 100.5,81.5 C 101.458,81.9528 102.292,82.6195 103,83.5C 103.548,87.1704 104.048,90.8371 104.5,94.5C 99.4159,92.5847 95.7492,89.0847 93.5,84C 95.0391,80.6023 97.3724,79.769 100.5,81.5 Z"/></g>
<g><path style="opacity:0.979" fill="#ff0a7b" d="M 100.5,81.5 C 102.384,84.9007 102.884,88.5674 102,92.5C 99.2329,90.2417 97.0662,87.5751 95.5,84.5C 96.0728,81.9147 97.7395,80.9147 100.5,81.5 Z"/></g>
<g><path style="opacity:0.184" fill="#dcdcdc" d="M 211.5,91.5 C 212.674,92.5137 213.34,93.847 213.5,95.5C 211.896,94.713 211.229,93.3797 211.5,91.5 Z"/></g>
<g><path style="opacity:0.501" fill="#8a8b8b" d="M 272.5,77.5 C 273.461,79.2646 273.795,81.2646 273.5,83.5C 270.5,83.5 267.5,83.5 264.5,83.5C 264.5,89.5 264.5,95.5 264.5,101.5C 264.167,101.5 263.833,101.5 263.5,101.5C 263.5,95.1667 263.5,88.8333 263.5,82.5C 266.5,82.5 269.5,82.5 272.5,82.5C 272.5,80.8333 272.5,79.1667 272.5,77.5 Z"/></g>
<g><path style="opacity:0.312" fill="#cfcfcf" d="M 402.5,93.5 C 403.692,94.5659 403.359,95.3992 401.5,96C 397.848,96.4986 394.182,96.6653 390.5,96.5C 390.5,95.1667 390.5,93.8333 390.5,92.5C 394.702,92.1832 398.702,92.5166 402.5,93.5 Z M 402.5,93.5 C 398.818,93.3347 395.152,93.5014 391.5,94C 395.394,96.1246 399.061,95.958 402.5,93.5 Z"/></g>
<g><path style="opacity:0.486" fill="#b5b5b5" d="M 351.5,98.5 C 353.404,98.7376 354.738,99.7376 355.5,101.5C 353.596,101.262 352.262,100.262 351.5,98.5 Z"/></g>
<g><path style="opacity:0.212" fill="#e0e1e1" d="M 213.5,95.5 C 218.152,101.712 216.486,103.879 208.5,102C 207.439,98.6655 205.105,97.1655 201.5,97.5C 197.862,96.7368 195.529,98.0702 194.5,101.5C 191.914,102.48 189.247,102.813 186.5,102.5C 186.232,100.901 186.566,99.5676 187.5,98.5C 187.5,99.5 187.5,100.5 187.5,101.5C 191.455,102.137 194.122,100.637 195.5,97C 199.541,96.1735 203.541,96.3401 207.5,97.5C 208.522,100.987 210.855,102.32 214.5,101.5C 214.167,99.5 213.833,97.5 213.5,95.5 Z"/></g>
<g><path style="opacity:0.826" fill="#303030" d="M 244.5,95.5 C 245.461,97.2646 245.795,99.2646 245.5,101.5C 237.981,101.825 230.648,101.492 223.5,100.5C 230.5,100.5 237.5,100.5 244.5,100.5C 244.5,98.8333 244.5,97.1667 244.5,95.5 Z"/></g>
<g><path style="opacity:0.298" fill="#cdcece" d="M 373.5,98.5 C 372.878,100.335 371.544,101.502 369.5,102C 364.648,102.815 359.981,102.648 355.5,101.5C 361.874,102.222 367.874,101.222 373.5,98.5 Z"/></g>
<g><path style="opacity:0.039" fill="#ffe8f2" d="M 140.5,130.5 C 142.701,127.979 145.034,125.479 147.5,123C 142.167,122.333 136.833,122.333 131.5,123C 134.039,125.37 136.372,127.87 138.5,130.5C 134.954,129.128 132.12,126.795 130,123.5C 129.517,122.552 129.351,121.552 129.5,120.5C 135.81,121.19 142.143,121.524 148.5,121.5C 147.804,124.554 146.304,127.22 144,129.5C 142.989,130.337 141.822,130.67 140.5,130.5 Z"/></g>
<g><path style="opacity:0.976" fill="#ff147b" d="M 140.5,130.5 C 139.833,130.5 139.167,130.5 138.5,130.5C 136.372,127.87 134.039,125.37 131.5,123C 136.833,122.333 142.167,122.333 147.5,123C 145.034,125.479 142.701,127.979 140.5,130.5 Z"/></g>
</svg>
